<?xml version="1.0" encoding="utf-8"?>
<!-- Generator: Adobe Illustrator 21.0.0, SVG Export Plug-In . SVG Version: 6.00 Build 0)  -->
<svg version="1.1" xmlns="http://www.w3.org/2000/svg" xmlns:xlink="http://www.w3.org/1999/xlink" x="0px" y="0px"
	 viewBox="0 0 502.9 634.8" style="enable-background:new 0 0 502.9 634.8;" xml:space="preserve">
<style type="text/css">
	.st0{display:none;}
	.st1{display:inline;fill:#B27474;}
	.st2{fill:#FFFFFF;}
	.st3{font-family:'Athelas-Bold';}
	.st4{font-size:81px;}
	.st5{letter-spacing:11;}
</style>
<g id="Слой_2" class="st0">
	<rect x="-72.4" y="-99.3" class="st1" width="636.7" height="787"/>
</g>
<g id="Слой_1">
	<g>
		<path class="st2" d="M344.7,0c1.9,4.1,4.8,8,5.4,12.2c7.9,52.3,20.4,103.3,42.4,151.6c12.1,26.7,16.1,55,14.7,84.2
			c-1.1,21.3,1.5,41.9,16.8,58.2c8.5,9,7.1,20,7.9,30.3c1.7,19.7,4.7,38.3,14.7,56.2c15.3,27.2-1.5,56.4-32.3,62
			c-41.2,7.5-82.3,15.6-122.9,25.5c-23.3,5.7-45.2,19.6-68.6,22.3c-32.1,3.6-62.9,11.2-94.4,17.1c-36.1,6.7-44.9-1.2-51.1-37.9
			c-3.9-23.4-5.9-47.3-7.1-71c-1.4-27.2-4.2-53.2-20.2-76.7c-10.1-14.8-13.4-32.1-12.2-50.6c0.6-9.5-2.8-19.3-4.9-28.9
			c-3.5-16.8-8.8-33.3-10.6-50.2c-2-18.9-3.3-37.4-13.9-54c-3.9-6.1-7.1-13.1-8.3-20.1c-0.9-5.6,1.6-11.9,2.7-17.8
			c1.4-7.8,3.3-15.6,4.4-23.5c1-7.9,5.9-12.6,13-12c28.1,2.4,52-12.1,78-18.2c24.5-5.8,49.5-10.1,74.5-13.5
			c27.2-3.6,52.7-9.8,77.6-23.2c19.7-10.6,43.8-13.2,65.9-19.3c3.3-0.9,6.6-1.8,9.9-2.7C332.4,0,338.5,0,344.7,0z M414.1,405.8
			c-0.1-0.4-0.8-3.8-1.6-7.2c-18.1-73.9-36.2-147.7-54.4-221.6C348,136,337.8,95,327.3,54c-3.8-14.7-7.9-16.8-22.3-13.4
			C277.7,47,250.4,53.5,223.1,60c-59.4,14.2-118.9,28.3-178.3,42.7c-14.2,3.4-16.8,8.3-13.3,22.5C49.8,199.5,68.1,273.7,86.3,348
			c10.3,41.8,20.3,83.6,30.8,125.4c3.7,14.8,8.4,17.1,23.4,13.5c56.8-13.7,113.6-27.3,170.4-41c30.3-7.3,60.5-14.8,90.8-22.1
			C409.7,421.8,415.2,418.1,414.1,405.8z"/>
		<path class="st2" d="M273.9,158.9c-4.9-16.7-4.6-17.2,12.5-24.5c-3.7-6-7.3-11.8-10.9-17.5c-1.1,0.2-2.2,0.3-3.3,0.5
			c-1.2,6-2.8,12-3.4,18.1c-0.8,7.6-1,15.3-1.3,23c-1,22.8,3.3,17-18.3,22.9c-19.3,5.2-38.8,9.4-58.2,14.2
			c-6.9,1.7-10.5,0.2-12.2-7.4c-5.4-23.6-11.1-47.2-17.4-70.5c-2.3-8.3,0.6-11.3,7.9-12.7c3-0.6,6-1.3,8.9-2.2
			c6.4-2.1,9.1,0.7,10.4,6.7c3.7,16.9,8.1,33.6,11.5,50.6c1.6,7.8,4.6,10.1,12.6,8.5c26.6-5.4,26.3-5.1,29.3-31.1
			c1.7-14.9,4.3-29.7,7.3-44.3c2.1-10.2,24.9-16.6,32.1-9.3c21.8,22.2,37.7,48.1,49.7,77.8c-7.3,1.9-13.8,3.9-20.5,5.2
			c-2.2,0.4-6.4-0.4-6.8-1.7c-4.8-13.6-14.4-9.4-23.6-6.9C278.4,158.8,276.5,158.7,273.9,158.9z"/>
		<path class="st2" d="M372.8,402.9c-10.1,2.6-18.2,4.7-27,6.9c-3.9-15.7-7.7-30.6-11.4-45.6c-1.4,0-2.7,0-4.1-0.1
			c-1.4,6.7-3.4,13.3-4,20c-1.4,16.1-1.1,16.1-16.8,18c-7.2-9.9-14-19.4-20.9-28.9c-1.3,0.7-2.6,1.4-3.9,2.1c3.5,15,7,30,10.8,46.4
			c-9.3,2.3-17.6,4.4-27,6.8c-4.6-18.8-8.9-36.6-13.3-54.3c-1.5-6-3.6-11.9-4.3-17.9c-0.7-6.3-2.2-16.9,0.4-18.3
			c8.8-4.4,19.3-9.3,29.1-1.4c8.9,7.2,17.2,15,27,23.5c3-8.9,5.4-17.5,8.6-25.7c5.8-15,14.1-20.5,29.8-19.9c2.3,0.1,5.9,2.6,6.4,4.6
			C359.1,346.6,365.7,374.1,372.8,402.9z"/>
		<path class="st2" d="M329,192.4c7.5,30.9,14.6,59.8,22,90c-9,2.3-17.3,4.5-28.1,7.3c1.8-33.2-22.1-40.9-48.1-51.4
			c5,21,9.4,39.4,14.1,58.8c-8.9,2.3-17.2,4.5-26.9,7c-7.3-30-14.5-59.2-21.6-88.3c23.3-13.9,43.7-4.5,65.3,5.4
			c0-8.6-2.9-18.5,0.8-22.7C310.4,193.9,320.4,194.4,329,192.4z"/>
		<path class="st2" d="M182.6,353c9.3-2,17.2-3.7,27-5.8c3.9,26,17.9,49.7,12.5,76.4c-1.4,7-7.1,15.8-13.2,18.6
			c-32.1,14.8-56.5,12.8-65.1-25.4c-3.7-16.5-7.8-32.8-12.2-50.8c9-2.3,17.3-4.4,26.9-6.8c3.5,14.1,6.7,27,10,40
			c1.7,6.7,2.6,13.9,6,19.7c2.4,4,8.2,8.3,12.6,8.4c7.8,0.3,9.9-6.7,8.7-13.3c-3.2-16.6-7.1-33-10.6-49.5
			C184.4,361.1,183.6,357.8,182.6,353z"/>
		<path class="st2" d="M106.6,172.8c5.3-1.8,6.3-2.2,7.4-2.5c13.2-3.5,18-9.1,15.6-18.2c-2.3-8.7-10.5-11.9-22.6-9.8
			c-6.9,1.2-9,3.6-7.2,10.7c4.9,19.7,9.1,39.5,14,60.7c-8.4,2.1-16.4,4.1-26.1,6.6c-7.4-30.1-14.6-59.3-22.3-90.9
			c20.9-3.8,40.3-9,59.9-10.5c20.4-1.5,35,16.7,33.5,38.1c-1.3,18.6-22.3,36.5-40.2,32.3C113.9,188.2,111.1,179.3,106.6,172.8z"/>
		<path class="st2" d="M84.7,251.4c22.1-5.3,42.7-11.4,63.7-14.8c12.7-2.1,7.7,10.9,11,16.5c-1.2,1.2-1.6,2-2.2,2.3
			c-19.5,6.6-19.4,6.6-14.1,27.1c3.4,13,6.4,26.1,10,39c1.9,7-0.6,9.5-7.2,11.1c-17.9,4.2-17.8,4.5-22-13.3
			c-2.9-12.7-6.7-25.3-8.6-38.2c-1.7-11.6-6.7-15.3-17.7-11.2c-2.1,0.8-4.4,1-7.7,1.7C88.1,264.9,86.6,258.9,84.7,251.4z"/>
		<path class="st2" d="M182.7,227.8c9.2-2.2,17.3-4,26.8-6.3c7.4,30.1,14.6,59.4,22.2,90.4c-9,2-17.4,3.9-26.6,6
			C197.5,287.6,190.3,258.3,182.7,227.8z"/>
		<text transform="matrix(0.9769 -0.2136 0.2136 0.9769 131.5924 600.4946)" class="st2 st3 st4 st5">TRAVEL</text>
	</g>
</g>
</svg>
